<?xml version="1.0" encoding="utf-8"?>
<!-- Generator: Adobe Illustrator 16.0.0, SVG Export Plug-In . SVG Version: 6.00 Build 0)  -->
<!DOCTYPE svg PUBLIC "-//W3C//DTD SVG 1.1//EN" "http://www.w3.org/Graphics/SVG/1.1/DTD/svg11.dtd">
<svg version="1.1" id="Ebene_1" xmlns="http://www.w3.org/2000/svg" xmlns:xlink="http://www.w3.org/1999/xlink" x="0px" y="0px"
	 width="500.188px" height="513.686px" viewBox="0 0 500.188 513.686" enable-background="new 0 0 500.188 513.686"
	 xml:space="preserve">
<path fill-rule="evenodd" clip-rule="evenodd" d="M0,134.233c0.868-5.753,1.48-11.56,2.649-17.251
	c5.012-24.424,17.123-45.103,34.118-63.016c19.602-20.661,42.912-36.031,68.888-47.521c2.955-1.307,5.506-1.459,8.494-0.122
	c29.94,13.398,56.363,31.527,77.315,57.08c0.39,0.475,0.565,1.125,1.068,2.162c17.86-22.131,35.066-43.451,52.499-65.051
	c10.004,12.118,19.751,23.924,29,35.127c11.427-5.871,22.028-12.379,33.418-16.893c13.271-5.259,27.173-8.982,40.941-12.875
	c2.845-0.804,6.38,0.271,9.475,0.998c29.804,7.003,57.367,18.794,80.772,38.978c15.876,13.689,28.581,29.732,33.785,50.544
	c6.277,25.106-1.523,45.749-20.923,62.262c-2.726,2.32-3.876,4.511-3.853,8.119c0.167,25.244,0.135,50.489,0.028,75.733
	c-0.013,2.951,0.827,5.165,2.694,7.413c15.566,18.732,31.031,37.55,46.518,56.35c0.544,0.659,1.013,1.381,1.9,2.601
	c-1.604,0.106-2.755,0.249-3.905,0.249c-163.714,0.011-327.429,0.011-491.142,0.003c-1.247,0-2.493-0.104-3.74-0.158
	C0,250.718,0,192.476,0,134.233z M431.017,292.249c0-13.061,0.061-25.666-0.093-38.268c-0.016-1.291-1.149-2.699-2.051-3.824
	c-3.668-4.582-7.452-9.068-11.184-13.6c-43.979-53.408-87.953-106.819-131.936-160.225c-4.507-5.471-9.053-10.911-13.644-16.442
	c-9.782,8.431-18.123,17.634-22.911,29.24c-2.762,6.695-4.848,14.033-5.364,21.216c-1.281,17.819,8.175,30.32,22.406,39.586
	c3.304,2.151,4.256,4.409,4.245,8.139c-0.118,43.108-0.075,86.216-0.075,129.323c0,1.569,0,3.139,0,4.854
	C324.16,292.249,377.335,292.249,431.017,292.249z M17.149,276.205c0.278,0.095,0.555,0.19,0.833,0.287
	C72.65,210.546,127.318,144.602,181.914,78.744c-0.338-0.663-0.458-1.028-0.68-1.314c-18.456-23.834-42.25-40.783-69.267-53.524
	c-1.14-0.538-2.993-0.482-4.148,0.067c-24.643,11.685-46.758,26.865-64.497,47.82c-17.228,20.354-26.474,43.62-26.263,70.667
	c0.338,43.242,0.09,86.488,0.09,129.732C17.149,273.529,17.149,274.867,17.149,276.205z M203.052,292.315c0-1.943,0-3.534,0-5.126
	c0-47.72,0.049-95.44-0.058-143.159c-0.015-6.469-0.467-12.981-1.322-19.393c-1.425-10.685-4.859-20.79-10.22-30.908
	C136.496,159.981,81.839,225.873,26.726,292.315C85.968,292.315,144.167,292.315,203.052,292.315z M285.563,49.693
	c48.327,58.679,96.394,117.041,144.46,175.403c0.336-0.102,0.673-0.204,1.008-0.305c0-1.29,0-2.58,0-3.87
	c0-18.991,0.354-37.99-0.174-56.966c-0.211-7.589,0.619-13.669,8.352-16.881c0.558-0.231,1.012-0.727,1.489-1.126
	c14.478-12.098,20.098-27.17,15.449-45.746c-3.674-14.685-12.026-26.481-22.865-36.618c-21.011-19.65-46.34-31.215-73.671-39.041
	c-5.921-1.696-11.535-2.271-17.468-0.09c-7.127,2.62-14.524,4.511-21.624,7.196C308.366,36.244,296.809,42.081,285.563,49.693z
	 M245.395,27.379c-0.782,0.671-1.208,0.938-1.506,1.308c-13.177,16.331-26.303,32.703-39.562,48.967
	c-1.623,1.989-0.797,3.28,0.141,4.957c10.272,18.365,15.359,38.046,15.323,59.123c-0.084,48.614-0.027,97.229-0.027,145.845
	c0,1.557,0,3.113,0,4.606c11.599,0,22.544,0,33.802,0c0-1.707,0-3.186,0-4.663c0-39.867-0.069-79.733,0.099-119.599
	c0.018-4.373-1.205-7.176-4.642-10.001c-20.031-16.469-26.963-41.231-18.971-65.801c4.865-14.954,13.584-27.416,24.393-38.572
	c2.222-2.293,4.637-4.397,7.033-6.656C255.925,40.154,250.78,33.913,245.395,27.379z M447.906,292.087c5.158,0,9.904,0,15.345,0
	c-5.175-6.28-9.902-12.017-14.63-17.753c-0.238,0.157-0.477,0.314-0.715,0.472C447.906,280.487,447.906,286.17,447.906,292.087z"/>
<path fill-rule="evenodd" clip-rule="evenodd" d="M333.559,325.458c15.293,0,30.379,0,46.024,0c0,21.438,0,42.799,0,65.234
	c2.384-2.514,3.903-4.256,5.566-5.846c11.157-10.655,24.825-13.899,39.707-12.987c23.069,1.413,39.727,12.83,48.933,33.86
	c10.94,24.996,9.672,50.363-1.979,74.688c-11.403,23.807-31.814,33.423-57.575,32.5c-13.94-0.5-25.599-5.997-34.422-17.036
	c-0.43-0.535-0.938-1.007-2.113-2.254c0,5.708,0,10.483,0,15.426c-14.94,0-29.393,0-44.142,0
	C333.559,447.975,333.559,386.954,333.559,325.458z M434.331,441.412c0.335-0.084,0.671-0.168,1.007-0.252
	c-1.536-6.623-2.403-13.496-4.758-19.813c-3.778-10.137-11.591-15.768-22.57-16.188c-11.558-0.442-20.531,4.287-25.522,14.875
	c-6.397,13.569-5.53,27.722-1.573,41.715c2.879,10.178,9.775,16.208,20.53,17.563c11.543,1.454,20.645-2.275,26.724-12.39
	C432.873,459.09,434.276,450.396,434.331,441.412z"/>
<path fill-rule="evenodd" clip-rule="evenodd" d="M112.573,493.827c-4.233,3.953-7.413,7.758-11.352,10.455
	c-17.299,11.844-35.84,10.92-54.376,3.759c-14.575-5.631-24.66-16.516-30.434-30.883c-10.091-25.11-11.07-50.479,1.339-75.066
	c18.481-36.619,64.056-36.261,83.55-20.275c2.841,2.329,5.445,4.948,8.825,8.044c0-21.939,0-43.064,0-64.375
	c15.668,0,30.853,0,46.272,0c0,61.2,0,122.237,0,183.508c-14.537,0-28.963,0-43.825,0
	C112.573,504.147,112.573,499.36,112.573,493.827z M112.762,443.18c-0.304-0.07-0.608-0.141-0.912-0.211
	c-0.059-8.043-0.936-15.93-4.543-23.281c-4.46-9.089-11.742-14.06-21.857-14.538c-10.473-0.497-19.167,3.396-24.072,12.746
	c-8.906,16.975-8.222,34.227,1.606,50.583c5.358,8.916,14.249,11.993,24.545,10.945c10.045-1.021,17.186-6.269,20.467-15.638
	C110.313,457.172,111.224,450.065,112.762,443.18z"/>
<path fill-rule="evenodd" clip-rule="evenodd" d="M177.015,465.245c7.15,0,14.248,0,21.345,0c6.499,0,13.001-0.095,19.494,0.1
	c1.052,0.031,2.852,1.232,2.978,2.09c1.431,9.71,7.659,14.485,16.594,16.434c7.093,1.547,14.193,1.468,20.921-1.59
	c2.33-1.06,4.647-2.555,6.404-4.393c4.887-5.116,3.913-12.621-2.361-15.823c-4.266-2.179-9.049-3.507-13.738-4.658
	c-13.805-3.389-27.693-6.44-41.513-9.772c-2.637-0.636-5.156-1.852-7.651-2.975c-12.287-5.527-19.546-14.598-20.416-28.442
	c-0.929-14.796,4.854-25.988,17.48-33.575c12.659-7.607,26.723-10.165,41.22-10.732c15.445-0.604,30.761,0.238,45.292,6.208
	c15.068,6.19,24.374,16.98,25.966,33.641c0.082,0.85,0.011,1.714,0.011,2.84c-14.204,0-28.25,0-42.274,0
	c-2.294-9.904-6.072-13.552-16.355-14.234c-5.651-0.375-11.446,0.194-17.069,1.046c-3.765,0.568-7.033,2.72-7.716,7.121
	c-0.68,4.382,1.603,7.648,5.157,9.09c6.762,2.743,13.745,5.142,20.841,6.814c9.343,2.203,18.925,3.368,28.327,5.345
	c12.295,2.584,22.821,8.279,29.553,19.315c10.04,16.46,4.05,39.212-13.253,51.026c-11.684,7.978-24.956,11.246-38.793,12.361
	c-17.835,1.435-35.498,0.542-52.28-6.452c-17.008-7.089-26.971-19.636-28.546-38.324c-0.031-0.371-0.049-0.747-0.02-1.117
	C176.629,466.347,176.746,466.115,177.015,465.245z"/>
</svg>
