<?xml version="1.0" encoding="utf-8"?>
<svg version="1.1" id="symrise-logo" xmlns="http://www.w3.org/2000/svg" x="0px" y="0px" viewBox="-400 200 1400 400"
     xml:space="preserve">
	<style type="text/css">
		.symrise-red {fill:#C51718;}
	</style>
	<desc>Symrise AG Logo</desc>
    <path class="symrise-red" d="M869.8,421.6c0-78.3-63.5-141.7-141.7-141.7c-78.3,0-141.7,63.5-141.7,141.7c0,78.3,63.5,141.7,141.7,141.7
			C806.3,563.4,869.8,499.9,869.8,421.6L869.8,421.6z M857.1,405.7c-16.8,7.2-45.5,18.5-51.9,38.4c-2,4.7-0.9,11.5-0.9,18.7
			c0,19.5-9.2,32.7-16,39.5c-9.1,9.1-17.3,14.4-19.7,16.6c-1.2,1.2-11.4,13.9-19.4,22.1c-7.3,7.6-15,11.7-16.5,10.6
			c-1.5-1.1,2.9-6.3,8-12.3c5.7-6.6,9.4-12,8.4-12.7c-1.7-1.1-7.2,2.6-17.9,7.8c-13.4,6.5-36.9,14.1-39.5,10.9
			c-4.2-4.2,41.4-15.7,47.7-37.9c0,0-9.2,3.7-22.3-15.9c-13.8-20.5-21.1-38.9-35.9-38.9c-18.5,0-56.7,25.3-68.6,33.5
			c-10.7-19.1-16.9-41.2-16.9-64.6c0-73.1,59.2-132.3,132.3-132.3c38,0,72.3,16,96.4,41.7c18.7,21,15.7,39.7,4.9,47.9
			c-12.5,9.4-29.6,5.6-31.7-1.6c-1.1-3.9,2.3-6.1,2.3-6.1c1.1-0.6,2.6-0.8,4.5-0.4c2.4,0.2,2.3-1.6,1.2-2.6c-2.3-2-6.8-3.2-9.8-3.2
			c-4.9-0.1-12.8,1.2-12.8,1.2c-1.7,0-3.6-0.5-5.1-1.5c-1.1-0.8-1.6-1.8-1.9-2.8c-1.1-3.9,1.4-5.4,1.4-5.4c1.2-1,3-1.5,5.5-1.1
			c2.4,0.2,2.3-1.6,1.2-2.6c-2.3-2-6.8-3.2-9.8-3.2c-4.8-0.1-12.8,1.2-12.8,1.2c-1.7,0-3.6-0.5-5.1-1.5c-1.1-0.8-1.6-1.8-1.9-2.8
			c-1.1-3.9,1.6-5.6,1.6-5.6c1.2-0.9,2.9-1.3,5.2-0.9c2.4,0.2,2.3-1.6,1.2-2.6c-2.3-2-6.8-3.2-9.8-3.2c-4.8-0.1-12.8,1.2-12.8,1.2
			c-2.5-0.1-3.5-1-3.7-2.6c-0.1-3,2.8-8.6,1.9-16.5c-1.3-12.1-9.8-16-11.6-15c-2.1,1.1,0.4,23.7-16.9,23.7c-3.2,0-5.7-0.2-8.3-0.3
			c-4.8,0-7,0.3-10.7,1.1c-5.3,1.5-10.7,4.9-12.2,12c-0.1,0.7-0.2,1.3-0.3,2c-0.1,1-0.1,2.1-1.1,2.4c-0.6,0.1-3,0.7-7,1
			c-17.9,1.7-27.9-6.6-30-7.3c-2.1-0.8-9.1,9.4-8.2,19.1c1.4,16.5,15.8,25.9,17.4,25c1-0.6-0.4-4,1.8-8c3.3-6,9.1-2,11.5-1.2
			c2.3,1,7.3,2.4,10.2,2.4c2.8,0,7.5-1.4,9.6-2.4c4.1-1.9,7.7-3.2,10.2-0.4c2,2.2,1.8,8.4,1.8,8.4c-9.5-3.5-13.1-2.8-20.3-1.3
			c-11.9,2.5-21.6,14.6-35.3,9.2c-12.1-5.1-11.5-13.3-13.6-13.5c-2.2-0.2-6.1,12.5,3.5,23.5c5.7,6.5,14.9,10.8,27.3,3.3
			c0.1,1.4,0.9,5.2,3,8.8c2.2,3.8,6.5,7.8,11.8,7.8c9.2,0,26.5-19.3,45.1-16.2c22.6,3.7,40.2,45.4,43.6,49.7
			c0.8,0.9,2.6,4.1,4.7,3.4c2.1-0.7,2.5-3.4,2.5-3.4c1.3-12,8.6-19.7,17.1-23.4c6.2-2.9,13.5-2.6,17.1-2.7c8.8,0,26.8-16,55.6-21.4
			C857.8,402.3,859.6,404.4,857.1,405.7L857.1,405.7z M701.4,341.7C701.4,341.7,701.4,341.7,701.4,341.7c-0.1-2.1-0.7-2.9-1.7-3.9
			c-0.4-0.4-0.4-1.2,0.7-1c2.8,0.8,4.7,2.8,4.7,5.2c0,2.3-2,4.3-4.7,5c-1.1,0.2-1.1-0.6-0.7-1c1-1.1,1.6-1.8,1.7-3.9c0,0,0,0,0,0
			c0,0,0-0.1,0-0.1C701.4,341.8,701.4,341.8,701.4,341.7L701.4,341.7z M694.1,342C694.1,342,694.1,342,694.1,342
			c0.1,2.1,0.7,2.8,1.7,3.9c0.4,0.4,0.4,1.2-0.6,1c-0.1,0-0.2-0.1-0.3-0.1c0,0,0,0-0.1,0c-2.6-0.9-4.5-2.8-4.4-5.1
			c0-2.2,1.8-4.1,4.4-4.9c1.4-0.4,1.5,0.5,1.1,1c-1,1.1-1.6,1.8-1.7,3.8c0,0,0,0.1,0,0.1c0,0,0,0.1,0,0.1
			C694.1,341.9,694.1,342,694.1,342L694.1,342z M691.7,386.9c-1.6,2.9-5.1,7.3-11.6,9.8c-9.9,3.8-18.2,1.9-19.8,0.4
			c0,0-0.1-0.1-0.1-0.1c0,0,16.9-17.6,32-11.1C692.2,385.9,692,386.3,691.7,386.9L691.7,386.9z M798.3,436.5c0-3.1-2.5-5.6-5.6-5.6
			c-3.1,0-5.7,2.5-5.7,5.6c0,3.1,2.5,5.6,5.7,5.6C795.7,442.1,798.3,439.6,798.3,436.5L798.3,436.5z"/>
    <path class="symrise-red" d="M515.5,440.4c0-29.4-13.2-59-51.6-59c-38.2,0-60.4,29.4-60.4,69.5c0,40.9,20.6,68.9,65.1,68.9
			c15.4,0,30.5-3.8,38.7-7.7v-19.5c-9.3,4.7-22,8.2-37.9,8.2c-29.9,0-41.5-20.3-41.7-50h87.3C515.2,447.5,515.5,443.9,515.5,440.4
			L515.5,440.4z M491.3,434.6h-62.6c3-25.3,17.6-34.6,34.6-34.6c18.7,0,28,16.2,28,33.2V434.6L491.3,434.6z M323.8,417.3
			c0-11,8-17.3,24.4-17.3c12.9,0,25.5,4.1,32.1,7.1v-19.8c-6.3-2.7-18.9-6-33-6c-27.7,0-46.4,11.8-46.4,37.9
			c0,21.1,14.3,31.6,36.3,39c18.7,6.6,27.5,9.6,27.5,22.5c0,14-9.6,20.3-28,20.3c-12.4,0-28-4.4-36.5-8.2v19.5
			c9.6,4.7,25.5,7.4,40.1,7.4c28.6,0,47.8-15.4,47.8-40.4c0-26.6-21.4-35.2-40.1-41.2C330.9,432.4,323.8,428,323.8,417.3
			L323.8,417.3z M275.6,343.1c0-8.5-7.1-15.4-15.7-15.4c-8.8,0-15.7,6.9-15.7,15.4s6.9,15.4,15.7,15.4
			C268.4,358.5,275.6,351.7,275.6,343.1L275.6,343.1z M214.3,402.7c6,0,10.7,1.1,14,1.9V383c-3.3-0.8-8-1.6-11.5-1.6
			c-14.8,0-25.8,6.9-33.5,16.2v-14h-23.6v134h23.6V414.8C190.6,408.5,198.6,402.7,214.3,402.7L214.3,402.7z M106.4,517.5h23.3
			v-88.7c0-27.7-11.3-47.5-42.8-47.5c-16.8,0-30.5,6-41.7,14c-6.6-8.5-17.6-14-30.2-14c-17.6,0-31,7.4-38.2,12.9v-10.7h-23.3v134
			H-23V410.4c6.9-4.7,16.8-9.6,26.9-9.6c16.8,0,26.1,8.8,26.1,30.5v86.2h23.3v-90.9c0-7.7-1.4-14.3-2.5-17.9c6.3-3.3,17.3-8,28-8
			c22.5,0,27.5,12.9,27.5,31.9V517.5L106.4,517.5z M-112.3,528.2l49.5-144.7h-23.9l-32.1,104.4h-0.6l-36.5-104.4h-25l49.2,134.3
			l-1.2,3.8c-3.8,12.9-10.7,23.1-25.5,23.1c-4.9,0-11-0.8-14.8-1.9v18.4c5.2,1.6,9.3,2.2,16.8,2.2
			C-132,563.4-120.8,552.6-112.3,528.2L-112.3,528.2z M-252.4,417.3c0-11,8-17.3,24.4-17.3c12.9,0,25.5,4.1,32.1,7.1v-19.8
			c-6.3-2.7-18.9-6-33-6c-27.7,0-46.4,11.8-46.4,37.9c0,21.1,14.3,31.6,36.3,39c18.7,6.6,27.5,9.6,27.5,22.5c0,14-9.6,20.3-28,20.3
			c-12.4,0-28-4.4-36.5-8.2v19.5c9.6,4.7,25.5,7.4,40.1,7.4c28.6,0,47.8-15.4,47.8-40.4c0-26.6-21.4-35.2-40.1-41.2
			C-245.2,432.4-252.4,428-252.4,417.3L-252.4,417.3z M271.7,383.5h-23.6v134h23.6V383.5L271.7,383.5z"/>
</svg>
